<svg height="512pt" viewBox="0 -83 512 512" width="512pt" xmlns="http://www.w3.org/2000/svg"><path d="m187.730469 168.105469c2.144531 0 4.292969-.566407 6.25-1.695313l52.972656-30.582031c3.914063-2.261719 6.25-6.308594 6.25-10.828125s-2.335937-8.5625-6.25-10.824219l-52.972656-30.582031c-3.910157-2.257812-8.585938-2.257812-12.5 0-3.914063 2.257812-6.25 6.304688-6.25 10.824219v61.167969c0 4.519531 2.335937 8.566406 6.25 10.824218 1.957031 1.132813 4.105469 1.695313 6.25 1.695313zm2.5-69.355469 45.472656 26.253906-45.472656 26.253906zm0 0"/><path d="m489.5 96.003906h-90.269531v-73.503906c0-12.40625-10.09375-22.5-22.5-22.5h-326.402344c-12.402344 0-22.5 10.09375-22.5 22.5v51c0 4.140625 3.359375 7.5 7.5 7.5 4.144531 0 7.5-3.359375 7.5-7.5v-22.855469h249.148437c4.144532 0 7.5-3.355469 7.5-7.5 0-4.140625-3.355468-7.5-7.5-7.5h-249.140624v-13.144531c0-4.136719 3.363281-7.5 7.5-7.5h326.390624c4.136719 0 7.5 3.363281 7.5 7.5v13.144531h-61.152343c-4.140625 0-7.5 3.359375-7.5 7.5 0 4.144531 3.359375 7.5 7.5 7.5h61.15625v45.359375h-12.316407c-12.402343 0-22.5 10.09375-22.5 22.5v123.816406h-86.453124c-10.550782 0-19.132813 8.578126-19.132813 19.121094 0 1.105469-.429687 2.148438-1.191406 2.914063-.785157.785156-1.824219 1.214843-2.925781 1.214843h-52.359376c-2.273437 0-4.121093-1.851562-4.121093-4.128906 0-5.105468-1.992188-9.90625-5.605469-13.523437-3.609375-3.609375-8.414062-5.597657-13.523438-5.597657h-121.273437v-138.820312c0-4.140625-3.355469-7.5-7.5-7.5-4.140625 0-7.5 3.359375-7.5 7.5v139.316406c-15.785156 2.742188-27.828125 16.542969-27.828125 33.105469 0 8.972656 3.492188 17.40625 9.835938 23.753906 6.34375 6.339844 14.785156 9.835938 23.765624 9.835938h315.8125v13.410156c0 12.40625 10.09375 22.5 22.5 22.5h117.585938c12.40625 0 22.5-10.09375 22.5-22.5v-204.417969c0-12.40625-10.09375-22.5-22.5-22.5zm-140.085938 198.507813h-315.8125c-4.976562 0-9.648437-1.933594-13.15625-5.445313-3.511718-3.507812-5.445312-8.179687-5.445312-13.144531 0-10.257813 8.34375-18.601563 18.601562-18.601563h130.5c1.101563 0 2.140626.425782 2.914063 1.203126.785156.78125 1.214844 1.820312 1.214844 2.917968 0 10.546875 8.578125 19.128906 19.121093 19.128906h52.359376c5.09375 0 9.894531-1.984374 13.535156-5.609374 3.601562-3.617188 5.582031-8.421876 5.582031-13.519532 0-2.273437 1.855469-4.121094 4.132813-4.121094h86.453124zm102.5625-183.507813-.199218.589844c-1.023438 3.019531-3.855469 5.050781-7.050782 5.050781h-28.039062c-3.191406 0-6.023438-2.03125-7.046875-5.050781l-.203125-.589844zm45.023438 211.917969c0 4.132813-3.363281 7.5-7.5 7.5h-117.585938c-4.136718 0-7.5-3.367187-7.5-7.5v-20.652344c.003907-.085937.007813-.171875.007813-.257812 0-.089844-.003906-.171875-.007813-.257813v-51.675781c.003907-.085937.007813-.171875.007813-.257813 0-.089843-.003906-.171874-.007813-.257812v-131.0625c0-4.136719 3.363282-7.5 7.5-7.5h21.6875l1.832032 5.40625c3.089844 9.113281 11.632812 15.238281 21.253906 15.238281h28.039062c9.621094 0 18.164063-6.125 21.253907-15.238281l1.832031-5.40625h21.6875c4.136719 0 7.5 3.363281 7.5 7.5zm0 0"/><path d="m132.5 183.144531c-9.21875 0-17.101562 5.835938-20.152344 14.003907h-4.066406c-4.144531 0-7.5 3.359374-7.5 7.5 0 4.144531 3.355469 7.5 7.5 7.5h4.070312c3.050782 8.167968 10.929688 13.996093 20.148438 13.996093s17.097656-5.828125 20.148438-13.996093h166.132812c4.140625 0 7.5-3.355469 7.5-7.5 0-4.140626-3.359375-7.5-7.5-7.5h-166.128906c-3.050782-8.167969-10.933594-14.003907-20.152344-14.003907zm0 28c-3.585938 0-6.5-2.914062-6.5-6.5 0-3.582031 2.914062-6.5 6.5-6.5s6.5 2.917969 6.5 6.5c0 3.585938-2.914062 6.5-6.5 6.5zm0 0"/><path d="m463.421875 209.886719-52.820313-30.496094c-3.910156-2.257813-8.585937-2.257813-12.5 0-3.914062 2.257813-6.25 6.304687-6.25 10.824219v60.992187c0 4.519531 2.335938 8.5625 6.25 10.824219 1.957032 1.128906 4.105469 1.695312 6.25 1.695312 2.144532 0 4.292969-.566406 6.25-1.695312l52.820313-30.496094c3.914063-2.261718 6.25-6.308594 6.25-10.824218 0-4.519532-2.335937-8.566407-6.25-10.824219zm-56.570313 36.992187v-52.332031l45.320313 26.164063zm0 0"/><path d="m449.667969 311.644531h-37.921875c-4.140625 0-7.5 3.359375-7.5 7.5 0 4.144531 3.359375 7.5 7.5 7.5h37.921875c4.140625 0 7.5-3.355469 7.5-7.5 0-4.140625-3.359375-7.5-7.5-7.5zm0 0"/></svg>